<mxfile host="app.diagrams.net" agent="Mozilla/5.0 (Windows NT 10.0; Win64; x64) AppleWebKit/537.36 (KHTML, like Gecko) Chrome/122.0.0.0 Safari/537.36" version="26.0.16">
  <diagram name="Page-1" id="js-JORSwDeCTtrG_aufr">
    <mxGraphModel dx="2899" dy="2326" grid="1" gridSize="10" guides="1" tooltips="1" connect="1" arrows="1" fold="1" page="1" pageScale="1" pageWidth="850" pageHeight="1100" math="0" shadow="0">
      <root>
        <mxCell id="0" />
        <mxCell id="1" parent="0" />
        <mxCell id="SvQYntT_slhw4JaxMj-Q-138" value="" style="rounded=1;whiteSpace=wrap;html=1;absoluteArcSize=1;arcSize=14;strokeWidth=2;fillColor=none;dashed=1;fontStyle=1" parent="1" vertex="1">
          <mxGeometry x="430" y="-170" width="520" height="520" as="geometry" />
        </mxCell>
        <mxCell id="SvQYntT_slhw4JaxMj-Q-137" value="" style="rounded=1;whiteSpace=wrap;html=1;absoluteArcSize=1;arcSize=14;strokeWidth=2;fillColor=none;dashed=1;fontStyle=1" parent="1" vertex="1">
          <mxGeometry x="-500" y="-170" width="930" height="520" as="geometry" />
        </mxCell>
        <mxCell id="SvQYntT_slhw4JaxMj-Q-130" value="" style="shape=internalStorage;whiteSpace=wrap;html=1;backgroundOutline=1;fontSize=16;fontStyle=1" parent="1" vertex="1">
          <mxGeometry x="-480" y="-150" width="140" height="272.5" as="geometry" />
        </mxCell>
        <mxCell id="SvQYntT_slhw4JaxMj-Q-131" value="&lt;font style=&quot;&quot; size=&quot;1&quot;&gt;&lt;span style=&quot;&quot;&gt;&lt;span style=&quot;font-size: 16px;&quot;&gt;Legend&lt;/span&gt;&lt;/span&gt;&lt;/font&gt;" style="text;html=1;align=center;verticalAlign=middle;resizable=0;points=[];autosize=1;strokeColor=none;fillColor=none;fontStyle=1" parent="1" vertex="1">
          <mxGeometry x="-465" y="-152.5" width="80" height="30" as="geometry" />
        </mxCell>
        <mxCell id="SvQYntT_slhw4JaxMj-Q-129" value="" style="shape=internalStorage;whiteSpace=wrap;html=1;backgroundOutline=1;fontSize=16;fontStyle=1" parent="1" vertex="1">
          <mxGeometry x="450" y="-92.5" width="130" height="220" as="geometry" />
        </mxCell>
        <mxCell id="27vbrKRVvee8yeocWUzd-69" style="edgeStyle=orthogonalEdgeStyle;rounded=0;orthogonalLoop=1;jettySize=auto;html=1;exitX=1;exitY=0.5;exitDx=0;exitDy=0;entryX=0;entryY=0.5;entryDx=0;entryDy=0;" edge="1" parent="1" source="SvQYntT_slhw4JaxMj-Q-2" target="27vbrKRVvee8yeocWUzd-23">
          <mxGeometry relative="1" as="geometry" />
        </mxCell>
        <mxCell id="27vbrKRVvee8yeocWUzd-83" style="edgeStyle=orthogonalEdgeStyle;rounded=0;orthogonalLoop=1;jettySize=auto;html=1;exitX=0;exitY=0.25;exitDx=0;exitDy=0;entryX=1;entryY=0.5;entryDx=0;entryDy=0;" edge="1" parent="1" source="SvQYntT_slhw4JaxMj-Q-2" target="0YpsHcEJag4zuLVZvNyq-3">
          <mxGeometry relative="1" as="geometry" />
        </mxCell>
        <mxCell id="27vbrKRVvee8yeocWUzd-84" style="edgeStyle=orthogonalEdgeStyle;rounded=0;orthogonalLoop=1;jettySize=auto;html=1;exitX=0;exitY=0.75;exitDx=0;exitDy=0;entryX=1;entryY=0.75;entryDx=0;entryDy=0;" edge="1" parent="1" source="SvQYntT_slhw4JaxMj-Q-2" target="SvQYntT_slhw4JaxMj-Q-11">
          <mxGeometry relative="1" as="geometry" />
        </mxCell>
        <mxCell id="27vbrKRVvee8yeocWUzd-96" style="edgeStyle=orthogonalEdgeStyle;rounded=0;orthogonalLoop=1;jettySize=auto;html=1;exitX=0.25;exitY=0;exitDx=0;exitDy=0;entryX=0.5;entryY=1;entryDx=0;entryDy=0;" edge="1" parent="1" source="SvQYntT_slhw4JaxMj-Q-2" target="ujazCNuhz-sULvrIAdQW-49">
          <mxGeometry relative="1" as="geometry">
            <Array as="points">
              <mxPoint x="119" />
              <mxPoint x="-8" />
            </Array>
          </mxGeometry>
        </mxCell>
        <mxCell id="SvQYntT_slhw4JaxMj-Q-2" value="decisions.py" style="rounded=1;whiteSpace=wrap;html=1;fillColor=#d5e8d4;strokeColor=#82b366;fontSize=16;fontStyle=1" parent="1" vertex="1">
          <mxGeometry x="91.25" y="40.63" width="112.5" height="45" as="geometry" />
        </mxCell>
        <mxCell id="27vbrKRVvee8yeocWUzd-81" style="edgeStyle=orthogonalEdgeStyle;rounded=0;orthogonalLoop=1;jettySize=auto;html=1;exitX=0;exitY=0.5;exitDx=0;exitDy=0;entryX=1;entryY=0.75;entryDx=0;entryDy=0;" edge="1" parent="1" source="SvQYntT_slhw4JaxMj-Q-11" target="0YpsHcEJag4zuLVZvNyq-2">
          <mxGeometry relative="1" as="geometry" />
        </mxCell>
        <mxCell id="SvQYntT_slhw4JaxMj-Q-11" value="/position" style="swimlane;whiteSpace=wrap;html=1;fillColor=#dae8fc;strokeColor=#6c8ebf;fontSize=16;fontStyle=1" parent="1" vertex="1">
          <mxGeometry x="-41.25" y="83.13" width="90" height="50" as="geometry" />
        </mxCell>
        <mxCell id="SvQYntT_slhw4JaxMj-Q-16" value="Node" style="rounded=1;whiteSpace=wrap;html=1;fillColor=#d5e8d4;strokeColor=#82b366;fontSize=16;fontStyle=1" parent="1" vertex="1">
          <mxGeometry x="-445" y="-120" width="80" height="40" as="geometry" />
        </mxCell>
        <mxCell id="SvQYntT_slhw4JaxMj-Q-17" value="/topic" style="swimlane;whiteSpace=wrap;html=1;fillColor=#dae8fc;strokeColor=#6c8ebf;fontSize=16;fontStyle=1" parent="1" vertex="1">
          <mxGeometry x="-445" y="-67.5" width="80" height="50" as="geometry" />
        </mxCell>
        <mxCell id="27vbrKRVvee8yeocWUzd-87" style="edgeStyle=orthogonalEdgeStyle;rounded=0;orthogonalLoop=1;jettySize=auto;html=1;exitX=0.25;exitY=1;exitDx=0;exitDy=0;entryX=0.5;entryY=0;entryDx=0;entryDy=0;" edge="1" parent="1" source="SvQYntT_slhw4JaxMj-Q-27" target="SvQYntT_slhw4JaxMj-Q-2">
          <mxGeometry relative="1" as="geometry">
            <Array as="points">
              <mxPoint x="148" y="-54" />
              <mxPoint x="148" y="-7" />
            </Array>
          </mxGeometry>
        </mxCell>
        <mxCell id="SvQYntT_slhw4JaxMj-Q-27" value="yolo_model.py" style="rounded=1;whiteSpace=wrap;html=1;fillColor=#fff2cc;strokeColor=#d6b656;fontSize=16;fontStyle=1" parent="1" vertex="1">
          <mxGeometry x="78.75" y="-66.25" width="125" height="32.5" as="geometry" />
        </mxCell>
        <mxCell id="SvQYntT_slhw4JaxMj-Q-69" value="Hardware" style="rhombus;whiteSpace=wrap;html=1;fillColor=#f8cecc;strokeColor=#b85450;fontSize=16;fontStyle=1" parent="1" vertex="1">
          <mxGeometry x="-450" y="-7.5" width="90" height="60" as="geometry" />
        </mxCell>
        <mxCell id="SvQYntT_slhw4JaxMj-Q-70" value="Motors" style="rhombus;whiteSpace=wrap;html=1;fillColor=#f8cecc;strokeColor=#b85450;fontSize=16;fontStyle=1" parent="1" vertex="1">
          <mxGeometry x="-252" y="185" width="90" height="60" as="geometry" />
        </mxCell>
        <mxCell id="SvQYntT_slhw4JaxMj-Q-96" style="edgeStyle=orthogonalEdgeStyle;rounded=0;orthogonalLoop=1;jettySize=auto;html=1;exitX=1;exitY=0.5;exitDx=0;exitDy=0;exitPerimeter=0;entryX=0;entryY=0.5;entryDx=0;entryDy=0;fontSize=16;fontStyle=1" parent="1" source="SvQYntT_slhw4JaxMj-Q-73" target="SvQYntT_slhw4JaxMj-Q-88" edge="1">
          <mxGeometry relative="1" as="geometry" />
        </mxCell>
        <mxCell id="27vbrKRVvee8yeocWUzd-103" style="edgeStyle=orthogonalEdgeStyle;rounded=0;orthogonalLoop=1;jettySize=auto;html=1;exitX=0;exitY=0.5;exitDx=0;exitDy=0;exitPerimeter=0;entryX=1;entryY=0.25;entryDx=0;entryDy=0;" edge="1" parent="1" source="SvQYntT_slhw4JaxMj-Q-73" target="27vbrKRVvee8yeocWUzd-55">
          <mxGeometry relative="1" as="geometry">
            <Array as="points">
              <mxPoint x="520" y="225" />
              <mxPoint x="520" y="250" />
              <mxPoint x="420" y="250" />
              <mxPoint x="420" y="134" />
            </Array>
          </mxGeometry>
        </mxCell>
        <mxCell id="SvQYntT_slhw4JaxMj-Q-73" value="UART_Rx" style="strokeWidth=2;html=1;shape=mxgraph.flowchart.start_1;whiteSpace=wrap;fillColor=#e1d5e7;strokeColor=#9673a6;fontSize=16;fontStyle=1" parent="1" vertex="1">
          <mxGeometry x="550" y="200" width="90" height="50" as="geometry" />
        </mxCell>
        <mxCell id="27vbrKRVvee8yeocWUzd-104" style="edgeStyle=orthogonalEdgeStyle;rounded=0;orthogonalLoop=1;jettySize=auto;html=1;exitX=0;exitY=0.5;exitDx=0;exitDy=0;exitPerimeter=0;entryX=1;entryY=0.75;entryDx=0;entryDy=0;" edge="1" parent="1" source="SvQYntT_slhw4JaxMj-Q-76" target="27vbrKRVvee8yeocWUzd-55">
          <mxGeometry relative="1" as="geometry">
            <Array as="points">
              <mxPoint x="520" y="305" />
              <mxPoint x="520" y="280" />
              <mxPoint x="400" y="280" />
              <mxPoint x="400" y="151" />
            </Array>
          </mxGeometry>
        </mxCell>
        <mxCell id="SvQYntT_slhw4JaxMj-Q-76" value="UART_Tx" style="strokeWidth=2;html=1;shape=mxgraph.flowchart.start_1;whiteSpace=wrap;fillColor=#e1d5e7;strokeColor=#9673a6;fontSize=16;fontStyle=1" parent="1" vertex="1">
          <mxGeometry x="550" y="280" width="90" height="50" as="geometry" />
        </mxCell>
        <mxCell id="SvQYntT_slhw4JaxMj-Q-81" value="Module" style="rounded=1;whiteSpace=wrap;html=1;fillColor=#d5e8d4;strokeColor=#82b366;fontSize=16;fontStyle=1" parent="1" vertex="1">
          <mxGeometry x="485" y="-60" width="80" height="40" as="geometry" />
        </mxCell>
        <mxCell id="-YYrbfhrtaR76CVI8aIQ-5" style="edgeStyle=orthogonalEdgeStyle;rounded=0;orthogonalLoop=1;jettySize=auto;html=1;exitX=0.5;exitY=0;exitDx=0;exitDy=0;exitPerimeter=0;entryX=0.5;entryY=1;entryDx=0;entryDy=0;fontStyle=1" parent="1" source="SvQYntT_slhw4JaxMj-Q-82" target="SvQYntT_slhw4JaxMj-Q-97" edge="1">
          <mxGeometry relative="1" as="geometry" />
        </mxCell>
        <mxCell id="SvQYntT_slhw4JaxMj-Q-82" value="Move" style="strokeWidth=2;html=1;shape=mxgraph.flowchart.start_1;whiteSpace=wrap;fillColor=#e1d5e7;strokeColor=#9673a6;fontSize=16;fontStyle=1" parent="1" vertex="1">
          <mxGeometry x="720" y="-30" width="80" height="50" as="geometry" />
        </mxCell>
        <mxCell id="-YYrbfhrtaR76CVI8aIQ-17" style="edgeStyle=orthogonalEdgeStyle;rounded=0;orthogonalLoop=1;jettySize=auto;html=1;exitX=0.5;exitY=0;exitDx=0;exitDy=0;entryX=0.5;entryY=1;entryDx=0;entryDy=0;fontStyle=1" parent="1" source="SvQYntT_slhw4JaxMj-Q-88" target="SvQYntT_slhw4JaxMj-Q-90" edge="1">
          <mxGeometry relative="1" as="geometry" />
        </mxCell>
        <mxCell id="-YYrbfhrtaR76CVI8aIQ-19" style="edgeStyle=orthogonalEdgeStyle;rounded=0;orthogonalLoop=1;jettySize=auto;html=1;exitX=0.75;exitY=0;exitDx=0;exitDy=0;entryX=0.5;entryY=1;entryDx=0;entryDy=0;fontStyle=1" parent="1" source="SvQYntT_slhw4JaxMj-Q-88" target="SvQYntT_slhw4JaxMj-Q-107" edge="1">
          <mxGeometry relative="1" as="geometry" />
        </mxCell>
        <mxCell id="SvQYntT_slhw4JaxMj-Q-88" value="State Machine" style="rounded=1;whiteSpace=wrap;html=1;fillColor=#d5e8d4;strokeColor=#82b366;fontSize=16;fontStyle=1" parent="1" vertex="1">
          <mxGeometry x="720" y="205" width="80" height="40" as="geometry" />
        </mxCell>
        <mxCell id="-YYrbfhrtaR76CVI8aIQ-18" style="edgeStyle=orthogonalEdgeStyle;rounded=0;orthogonalLoop=1;jettySize=auto;html=1;exitX=0.5;exitY=1;exitDx=0;exitDy=0;entryX=0.5;entryY=0;entryDx=0;entryDy=0;fontStyle=1" parent="1" source="SvQYntT_slhw4JaxMj-Q-90" target="SvQYntT_slhw4JaxMj-Q-88" edge="1">
          <mxGeometry relative="1" as="geometry" />
        </mxCell>
        <mxCell id="SvQYntT_slhw4JaxMj-Q-90" value="Motor_HAL" style="rounded=1;whiteSpace=wrap;html=1;fillColor=#d5e8d4;strokeColor=#82b366;fontSize=16;fontStyle=1" parent="1" vertex="1">
          <mxGeometry x="710" y="50" width="100" height="40" as="geometry" />
        </mxCell>
        <mxCell id="SvQYntT_slhw4JaxMj-Q-97" value="Motors" style="rhombus;whiteSpace=wrap;html=1;fillColor=#f8cecc;strokeColor=#b85450;fontSize=16;fontStyle=1" parent="1" vertex="1">
          <mxGeometry x="715" y="-127.5" width="90" height="60" as="geometry" />
        </mxCell>
        <mxCell id="SvQYntT_slhw4JaxMj-Q-108" style="edgeStyle=orthogonalEdgeStyle;rounded=0;orthogonalLoop=1;jettySize=auto;html=1;exitX=0.5;exitY=1;exitDx=0;exitDy=0;entryX=0.25;entryY=0;entryDx=0;entryDy=0;fontSize=16;fontStyle=1" parent="1" source="SvQYntT_slhw4JaxMj-Q-99" target="SvQYntT_slhw4JaxMj-Q-88" edge="1">
          <mxGeometry relative="1" as="geometry">
            <Array as="points">
              <mxPoint x="650" y="150" />
              <mxPoint x="740" y="150" />
            </Array>
          </mxGeometry>
        </mxCell>
        <mxCell id="SvQYntT_slhw4JaxMj-Q-99" value="Limit_HAL" style="rounded=1;whiteSpace=wrap;html=1;fillColor=#d5e8d4;strokeColor=#82b366;fontSize=16;fontStyle=1" parent="1" vertex="1">
          <mxGeometry x="605" y="50" width="90" height="40" as="geometry" />
        </mxCell>
        <mxCell id="SvQYntT_slhw4JaxMj-Q-106" style="edgeStyle=orthogonalEdgeStyle;rounded=0;orthogonalLoop=1;jettySize=auto;html=1;exitX=0.5;exitY=1;exitDx=0;exitDy=0;entryX=0.5;entryY=0;entryDx=0;entryDy=0;fontSize=16;fontStyle=1" parent="1" source="SvQYntT_slhw4JaxMj-Q-103" target="SvQYntT_slhw4JaxMj-Q-99" edge="1">
          <mxGeometry relative="1" as="geometry" />
        </mxCell>
        <mxCell id="SvQYntT_slhw4JaxMj-Q-103" value="Switches" style="rhombus;whiteSpace=wrap;html=1;fillColor=#f8cecc;strokeColor=#b85450;fontSize=16;fontStyle=1" parent="1" vertex="1">
          <mxGeometry x="605" y="-70" width="90" height="60" as="geometry" />
        </mxCell>
        <mxCell id="SvQYntT_slhw4JaxMj-Q-104" value="Hardware" style="rhombus;whiteSpace=wrap;html=1;fillColor=#f8cecc;strokeColor=#b85450;fontSize=16;fontStyle=1" parent="1" vertex="1">
          <mxGeometry x="480" y="52.5" width="90" height="60" as="geometry" />
        </mxCell>
        <mxCell id="-YYrbfhrtaR76CVI8aIQ-7" style="edgeStyle=orthogonalEdgeStyle;rounded=0;orthogonalLoop=1;jettySize=auto;html=1;exitX=0.5;exitY=0;exitDx=0;exitDy=0;entryX=0.5;entryY=1;entryDx=0;entryDy=0;fontStyle=1" parent="1" source="SvQYntT_slhw4JaxMj-Q-107" target="SvQYntT_slhw4JaxMj-Q-114" edge="1">
          <mxGeometry relative="1" as="geometry" />
        </mxCell>
        <mxCell id="-YYrbfhrtaR76CVI8aIQ-20" style="edgeStyle=orthogonalEdgeStyle;rounded=0;orthogonalLoop=1;jettySize=auto;html=1;exitX=0.5;exitY=1;exitDx=0;exitDy=0;entryX=0.75;entryY=0;entryDx=0;entryDy=0;fontStyle=1" parent="1" source="SvQYntT_slhw4JaxMj-Q-107" target="SvQYntT_slhw4JaxMj-Q-88" edge="1">
          <mxGeometry relative="1" as="geometry" />
        </mxCell>
        <mxCell id="SvQYntT_slhw4JaxMj-Q-107" value="HMI_HAL" style="rounded=1;whiteSpace=wrap;html=1;fillColor=#d5e8d4;strokeColor=#82b366;fontSize=16;fontStyle=1" parent="1" vertex="1">
          <mxGeometry x="825" y="50" width="80" height="40" as="geometry" />
        </mxCell>
        <mxCell id="-YYrbfhrtaR76CVI8aIQ-6" style="edgeStyle=orthogonalEdgeStyle;rounded=0;orthogonalLoop=1;jettySize=auto;html=1;exitX=0.5;exitY=1;exitDx=0;exitDy=0;entryX=0.5;entryY=0;entryDx=0;entryDy=0;fontStyle=1" parent="1" source="SvQYntT_slhw4JaxMj-Q-114" target="SvQYntT_slhw4JaxMj-Q-107" edge="1">
          <mxGeometry relative="1" as="geometry" />
        </mxCell>
        <mxCell id="SvQYntT_slhw4JaxMj-Q-114" value="HMI" style="rhombus;whiteSpace=wrap;html=1;fillColor=#f8cecc;strokeColor=#b85450;fontSize=16;fontStyle=1" parent="1" vertex="1">
          <mxGeometry x="820" y="-70" width="90" height="60" as="geometry" />
        </mxCell>
        <mxCell id="SvQYntT_slhw4JaxMj-Q-117" value="Process" style="strokeWidth=2;html=1;shape=mxgraph.flowchart.start_1;whiteSpace=wrap;fillColor=#e1d5e7;strokeColor=#9673a6;fontSize=16;fontStyle=1" parent="1" vertex="1">
          <mxGeometry x="485" y="-7.5" width="80" height="50" as="geometry" />
        </mxCell>
        <mxCell id="SvQYntT_slhw4JaxMj-Q-127" value="&lt;font style=&quot;&quot; size=&quot;1&quot;&gt;&lt;span style=&quot;&quot;&gt;&lt;span style=&quot;font-size: 16px;&quot;&gt;Legend&lt;/span&gt;&lt;/span&gt;&lt;/font&gt;" style="text;html=1;align=center;verticalAlign=middle;resizable=0;points=[];autosize=1;strokeColor=none;fillColor=none;fontStyle=1" parent="1" vertex="1">
          <mxGeometry x="470" y="-100" width="80" height="30" as="geometry" />
        </mxCell>
        <mxCell id="SvQYntT_slhw4JaxMj-Q-133" value="&lt;span&gt;&lt;u&gt;&lt;font style=&quot;font-size: 32px;&quot;&gt;RaspberryPi&lt;/font&gt;&lt;/u&gt;&lt;/span&gt;" style="text;html=1;strokeColor=none;fillColor=none;align=center;verticalAlign=middle;whiteSpace=wrap;rounded=0;fontStyle=1" parent="1" vertex="1">
          <mxGeometry x="-330" y="-152.5" width="220" height="50" as="geometry" />
        </mxCell>
        <mxCell id="SvQYntT_slhw4JaxMj-Q-139" value="&lt;span&gt;&lt;u&gt;&lt;font style=&quot;font-size: 32px;&quot;&gt;Nucleo&lt;/font&gt;&lt;/u&gt;&lt;/span&gt;" style="text;html=1;strokeColor=none;fillColor=none;align=center;verticalAlign=middle;whiteSpace=wrap;rounded=0;fontStyle=1" parent="1" vertex="1">
          <mxGeometry x="430" y="-170" width="140" height="50" as="geometry" />
        </mxCell>
        <mxCell id="-YYrbfhrtaR76CVI8aIQ-1" value="&lt;u style=&quot;font-size: 16px;&quot;&gt;UART&lt;/u&gt;" style="text;html=1;align=center;verticalAlign=middle;whiteSpace=wrap;rounded=0;fontSize=16;fontStyle=1" parent="1" vertex="1">
          <mxGeometry x="460" y="250" width="90" height="30" as="geometry" />
        </mxCell>
        <mxCell id="-YYrbfhrtaR76CVI8aIQ-8" style="edgeStyle=orthogonalEdgeStyle;rounded=0;orthogonalLoop=1;jettySize=auto;html=1;exitX=0.5;exitY=0;exitDx=0;exitDy=0;entryX=0.5;entryY=1;entryDx=0;entryDy=0;entryPerimeter=0;fontStyle=1" parent="1" source="SvQYntT_slhw4JaxMj-Q-90" target="SvQYntT_slhw4JaxMj-Q-82" edge="1">
          <mxGeometry relative="1" as="geometry" />
        </mxCell>
        <mxCell id="27vbrKRVvee8yeocWUzd-78" style="edgeStyle=orthogonalEdgeStyle;rounded=0;orthogonalLoop=1;jettySize=auto;html=1;exitX=0.5;exitY=1;exitDx=0;exitDy=0;entryX=1;entryY=0.25;entryDx=0;entryDy=0;" edge="1" parent="1" source="nDC3GwIiWiEVVQhMs_7W-8" target="SvQYntT_slhw4JaxMj-Q-2">
          <mxGeometry relative="1" as="geometry" />
        </mxCell>
        <mxCell id="nDC3GwIiWiEVVQhMs_7W-8" value="planner.py" style="rounded=1;whiteSpace=wrap;html=1;fillColor=#fff2cc;strokeColor=#d6b656;fontSize=16;fontStyle=1" parent="1" vertex="1">
          <mxGeometry x="175" y="-10.000000000000007" width="111.25" height="30" as="geometry" />
        </mxCell>
        <mxCell id="27vbrKRVvee8yeocWUzd-64" style="edgeStyle=orthogonalEdgeStyle;rounded=0;orthogonalLoop=1;jettySize=auto;html=1;exitX=0;exitY=0.5;exitDx=0;exitDy=0;entryX=1;entryY=0.5;entryDx=0;entryDy=0;" edge="1" parent="1" source="nDC3GwIiWiEVVQhMs_7W-18" target="27vbrKRVvee8yeocWUzd-33">
          <mxGeometry relative="1" as="geometry" />
        </mxCell>
        <mxCell id="27vbrKRVvee8yeocWUzd-65" style="edgeStyle=orthogonalEdgeStyle;rounded=0;orthogonalLoop=1;jettySize=auto;html=1;exitX=0.5;exitY=0;exitDx=0;exitDy=0;entryX=0.5;entryY=1;entryDx=0;entryDy=0;" edge="1" parent="1" source="nDC3GwIiWiEVVQhMs_7W-18" target="0YpsHcEJag4zuLVZvNyq-18">
          <mxGeometry relative="1" as="geometry" />
        </mxCell>
        <mxCell id="nDC3GwIiWiEVVQhMs_7W-18" value="localization.py" style="rounded=1;whiteSpace=wrap;html=1;fillColor=#d5e8d4;strokeColor=#82b366;fontSize=16;fontStyle=1" parent="1" vertex="1">
          <mxGeometry x="78.75" y="192.5" width="130" height="40" as="geometry" />
        </mxCell>
        <mxCell id="27vbrKRVvee8yeocWUzd-59" style="edgeStyle=orthogonalEdgeStyle;rounded=0;orthogonalLoop=1;jettySize=auto;html=1;exitX=0.5;exitY=1;exitDx=0;exitDy=0;" edge="1" parent="1" source="0YpsHcEJag4zuLVZvNyq-2" target="ujazCNuhz-sULvrIAdQW-21">
          <mxGeometry relative="1" as="geometry" />
        </mxCell>
        <mxCell id="27vbrKRVvee8yeocWUzd-61" style="edgeStyle=orthogonalEdgeStyle;rounded=0;orthogonalLoop=1;jettySize=auto;html=1;exitX=0;exitY=0.5;exitDx=0;exitDy=0;entryX=1;entryY=0.5;entryDx=0;entryDy=0;" edge="1" parent="1" source="0YpsHcEJag4zuLVZvNyq-2" target="ujazCNuhz-sULvrIAdQW-16">
          <mxGeometry relative="1" as="geometry" />
        </mxCell>
        <mxCell id="0YpsHcEJag4zuLVZvNyq-2" value="controller.py" style="rounded=1;whiteSpace=wrap;html=1;fillColor=#d5e8d4;strokeColor=#82b366;fontSize=16;fontStyle=1" parent="1" vertex="1">
          <mxGeometry x="-192.75" y="40.63" width="112.5" height="45" as="geometry" />
        </mxCell>
        <mxCell id="27vbrKRVvee8yeocWUzd-85" style="edgeStyle=orthogonalEdgeStyle;rounded=0;orthogonalLoop=1;jettySize=auto;html=1;exitX=0;exitY=0.5;exitDx=0;exitDy=0;entryX=1;entryY=0.25;entryDx=0;entryDy=0;" edge="1" parent="1" source="0YpsHcEJag4zuLVZvNyq-3" target="0YpsHcEJag4zuLVZvNyq-2">
          <mxGeometry relative="1" as="geometry" />
        </mxCell>
        <mxCell id="0YpsHcEJag4zuLVZvNyq-3" value="/path" style="swimlane;whiteSpace=wrap;html=1;fillColor=#dae8fc;strokeColor=#6c8ebf;fontSize=16;fontStyle=1;startSize=23;" parent="1" vertex="1">
          <mxGeometry x="-41.25" y="10.000000000000002" width="90" height="50" as="geometry" />
        </mxCell>
        <mxCell id="27vbrKRVvee8yeocWUzd-66" style="edgeStyle=orthogonalEdgeStyle;rounded=0;orthogonalLoop=1;jettySize=auto;html=1;exitX=0;exitY=0.5;exitDx=0;exitDy=0;entryX=0.75;entryY=1;entryDx=0;entryDy=0;" edge="1" parent="1" source="0YpsHcEJag4zuLVZvNyq-18" target="0YpsHcEJag4zuLVZvNyq-2">
          <mxGeometry relative="1" as="geometry">
            <Array as="points">
              <mxPoint x="-108" y="143" />
            </Array>
          </mxGeometry>
        </mxCell>
        <mxCell id="27vbrKRVvee8yeocWUzd-70" style="edgeStyle=orthogonalEdgeStyle;rounded=0;orthogonalLoop=1;jettySize=auto;html=1;exitX=0.5;exitY=0;exitDx=0;exitDy=0;entryX=0.5;entryY=1;entryDx=0;entryDy=0;" edge="1" parent="1" source="0YpsHcEJag4zuLVZvNyq-18" target="SvQYntT_slhw4JaxMj-Q-2">
          <mxGeometry relative="1" as="geometry" />
        </mxCell>
        <mxCell id="0YpsHcEJag4zuLVZvNyq-18" value="/pose" style="swimlane;whiteSpace=wrap;html=1;fillColor=#dae8fc;strokeColor=#6c8ebf;fontSize=16;fontStyle=1" parent="1" vertex="1">
          <mxGeometry x="107.5" y="118.13" width="80" height="50" as="geometry" />
        </mxCell>
        <mxCell id="yx9C5_KuWFZl6ONCJPJu-1" value="Class" style="rounded=1;whiteSpace=wrap;html=1;fillColor=#fff2cc;strokeColor=#d6b656;fontSize=16;fontStyle=1" parent="1" vertex="1">
          <mxGeometry x="-445" y="65" width="80" height="40" as="geometry" />
        </mxCell>
        <mxCell id="27vbrKRVvee8yeocWUzd-19" style="edgeStyle=orthogonalEdgeStyle;rounded=0;orthogonalLoop=1;jettySize=auto;html=1;exitX=0.5;exitY=1;exitDx=0;exitDy=0;entryX=0.5;entryY=0;entryDx=0;entryDy=0;" edge="1" parent="1" source="ujazCNuhz-sULvrIAdQW-1" target="27vbrKRVvee8yeocWUzd-18">
          <mxGeometry relative="1" as="geometry" />
        </mxCell>
        <mxCell id="ujazCNuhz-sULvrIAdQW-1" value="Encoders" style="rhombus;whiteSpace=wrap;html=1;fillColor=#f8cecc;strokeColor=#b85450;fontSize=16;fontStyle=1" parent="1" vertex="1">
          <mxGeometry x="825" y="170" width="105" height="60" as="geometry" />
        </mxCell>
        <mxCell id="27vbrKRVvee8yeocWUzd-97" style="edgeStyle=orthogonalEdgeStyle;rounded=0;orthogonalLoop=1;jettySize=auto;html=1;exitX=0;exitY=0.5;exitDx=0;exitDy=0;entryX=1;entryY=0.5;entryDx=0;entryDy=0;" edge="1" parent="1" source="ujazCNuhz-sULvrIAdQW-13" target="SvQYntT_slhw4JaxMj-Q-27">
          <mxGeometry relative="1" as="geometry" />
        </mxCell>
        <mxCell id="ujazCNuhz-sULvrIAdQW-13" value="Camera" style="rhombus;whiteSpace=wrap;html=1;fillColor=#f8cecc;strokeColor=#b85450;fontSize=16;fontStyle=1" parent="1" vertex="1">
          <mxGeometry x="220" y="-75" width="90" height="50" as="geometry" />
        </mxCell>
        <mxCell id="27vbrKRVvee8yeocWUzd-62" style="edgeStyle=orthogonalEdgeStyle;rounded=0;orthogonalLoop=1;jettySize=auto;html=1;exitX=1;exitY=0.5;exitDx=0;exitDy=0;entryX=0;entryY=0.5;entryDx=0;entryDy=0;" edge="1" parent="1" source="ujazCNuhz-sULvrIAdQW-16" target="0YpsHcEJag4zuLVZvNyq-2">
          <mxGeometry relative="1" as="geometry" />
        </mxCell>
        <mxCell id="ujazCNuhz-sULvrIAdQW-16" value="PID" style="rounded=1;whiteSpace=wrap;html=1;fillColor=#fff2cc;strokeColor=#d6b656;fontSize=16;fontStyle=1" parent="1" vertex="1">
          <mxGeometry x="-300" y="43.13" width="80" height="40" as="geometry" />
        </mxCell>
        <mxCell id="27vbrKRVvee8yeocWUzd-86" style="edgeStyle=orthogonalEdgeStyle;rounded=0;orthogonalLoop=1;jettySize=auto;html=1;exitX=0.5;exitY=1;exitDx=0;exitDy=0;entryX=0.5;entryY=0;entryDx=0;entryDy=0;" edge="1" parent="1" source="ujazCNuhz-sULvrIAdQW-21" target="SvQYntT_slhw4JaxMj-Q-70">
          <mxGeometry relative="1" as="geometry" />
        </mxCell>
        <mxCell id="ujazCNuhz-sULvrIAdQW-21" value="motor_control.py" style="rounded=1;whiteSpace=wrap;html=1;fillColor=#fff2cc;strokeColor=#d6b656;fontSize=16;fontStyle=1" parent="1" vertex="1">
          <mxGeometry x="-284" y="118.13" width="154" height="40" as="geometry" />
        </mxCell>
        <mxCell id="ujazCNuhz-sULvrIAdQW-49" value="neopixel_ring.py" style="rounded=1;whiteSpace=wrap;html=1;fillColor=#fff2cc;strokeColor=#d6b656;fontSize=16;fontStyle=1" parent="1" vertex="1">
          <mxGeometry x="-80.25" y="-60" width="145" height="32.5" as="geometry" />
        </mxCell>
        <mxCell id="27vbrKRVvee8yeocWUzd-91" style="edgeStyle=orthogonalEdgeStyle;rounded=0;orthogonalLoop=1;jettySize=auto;html=1;exitX=0.5;exitY=1;exitDx=0;exitDy=0;" edge="1" parent="1" source="27vbrKRVvee8yeocWUzd-2" target="27vbrKRVvee8yeocWUzd-58">
          <mxGeometry relative="1" as="geometry">
            <Array as="points">
              <mxPoint x="95" y="-90" />
              <mxPoint x="-136" y="-90" />
            </Array>
          </mxGeometry>
        </mxCell>
        <mxCell id="27vbrKRVvee8yeocWUzd-94" style="edgeStyle=orthogonalEdgeStyle;rounded=0;orthogonalLoop=1;jettySize=auto;html=1;exitX=1;exitY=0.5;exitDx=0;exitDy=0;entryX=0.5;entryY=0;entryDx=0;entryDy=0;" edge="1" parent="1" source="27vbrKRVvee8yeocWUzd-2" target="27vbrKRVvee8yeocWUzd-23">
          <mxGeometry relative="1" as="geometry" />
        </mxCell>
        <mxCell id="27vbrKRVvee8yeocWUzd-2" value="Teleop.py" style="rounded=1;whiteSpace=wrap;html=1;fillColor=#d5e8d4;strokeColor=#82b366;fontSize=16;fontStyle=1" vertex="1" parent="1">
          <mxGeometry x="38.75" y="-152.5" width="112.5" height="45" as="geometry" />
        </mxCell>
        <mxCell id="27vbrKRVvee8yeocWUzd-92" style="edgeStyle=orthogonalEdgeStyle;rounded=0;orthogonalLoop=1;jettySize=auto;html=1;exitX=1;exitY=0.5;exitDx=0;exitDy=0;entryX=0;entryY=0.5;entryDx=0;entryDy=0;" edge="1" parent="1" source="27vbrKRVvee8yeocWUzd-3" target="27vbrKRVvee8yeocWUzd-2">
          <mxGeometry relative="1" as="geometry" />
        </mxCell>
        <mxCell id="27vbrKRVvee8yeocWUzd-3" value="Remote" style="rhombus;whiteSpace=wrap;html=1;fillColor=#f8cecc;strokeColor=#b85450;fontSize=16;fontStyle=1" vertex="1" parent="1">
          <mxGeometry x="-90" y="-152.5" width="90" height="43.75" as="geometry" />
        </mxCell>
        <mxCell id="27vbrKRVvee8yeocWUzd-18" value="Encoder_HAL" style="rounded=1;whiteSpace=wrap;html=1;fillColor=#d5e8d4;strokeColor=#82b366;fontSize=16;fontStyle=1" vertex="1" parent="1">
          <mxGeometry x="821.87" y="285" width="111.25" height="40" as="geometry" />
        </mxCell>
        <mxCell id="27vbrKRVvee8yeocWUzd-77" style="edgeStyle=orthogonalEdgeStyle;rounded=0;orthogonalLoop=1;jettySize=auto;html=1;exitX=0.5;exitY=1;exitDx=0;exitDy=0;entryX=0.5;entryY=0;entryDx=0;entryDy=0;" edge="1" parent="1" source="27vbrKRVvee8yeocWUzd-23" target="27vbrKRVvee8yeocWUzd-55">
          <mxGeometry relative="1" as="geometry" />
        </mxCell>
        <mxCell id="27vbrKRVvee8yeocWUzd-23" value="/send_bytes" style="swimlane;whiteSpace=wrap;html=1;fillColor=#dae8fc;strokeColor=#6c8ebf;fontSize=16;fontStyle=1" vertex="1" parent="1">
          <mxGeometry x="275.31" y="38.13000000000001" width="101.88" height="50" as="geometry" />
        </mxCell>
        <mxCell id="27vbrKRVvee8yeocWUzd-73" style="edgeStyle=orthogonalEdgeStyle;rounded=0;orthogonalLoop=1;jettySize=auto;html=1;exitX=0;exitY=0.5;exitDx=0;exitDy=0;entryX=1;entryY=0.5;entryDx=0;entryDy=0;" edge="1" parent="1" source="27vbrKRVvee8yeocWUzd-29" target="27vbrKRVvee8yeocWUzd-35">
          <mxGeometry relative="1" as="geometry" />
        </mxCell>
        <mxCell id="27vbrKRVvee8yeocWUzd-29" value="Odometry.py" style="rounded=1;whiteSpace=wrap;html=1;fillColor=#d5e8d4;strokeColor=#82b366;fontSize=16;fontStyle=1" vertex="1" parent="1">
          <mxGeometry x="270" y="275" width="112.5" height="40" as="geometry" />
        </mxCell>
        <mxCell id="27vbrKRVvee8yeocWUzd-72" style="edgeStyle=orthogonalEdgeStyle;rounded=0;orthogonalLoop=1;jettySize=auto;html=1;exitX=0.5;exitY=1;exitDx=0;exitDy=0;entryX=0.5;entryY=0;entryDx=0;entryDy=0;" edge="1" parent="1" source="27vbrKRVvee8yeocWUzd-31" target="27vbrKRVvee8yeocWUzd-29">
          <mxGeometry relative="1" as="geometry" />
        </mxCell>
        <mxCell id="27vbrKRVvee8yeocWUzd-31" value="/ticks" style="swimlane;whiteSpace=wrap;html=1;fillColor=#dae8fc;strokeColor=#6c8ebf;fontSize=16;fontStyle=1" vertex="1" parent="1">
          <mxGeometry x="286.25" y="190" width="80" height="50" as="geometry" />
        </mxCell>
        <mxCell id="27vbrKRVvee8yeocWUzd-63" style="edgeStyle=orthogonalEdgeStyle;rounded=0;orthogonalLoop=1;jettySize=auto;html=1;exitX=1;exitY=0.5;exitDx=0;exitDy=0;" edge="1" parent="1" source="27vbrKRVvee8yeocWUzd-33" target="nDC3GwIiWiEVVQhMs_7W-18">
          <mxGeometry relative="1" as="geometry" />
        </mxCell>
        <mxCell id="27vbrKRVvee8yeocWUzd-33" value="kalman_filter.py" style="rounded=1;whiteSpace=wrap;html=1;fillColor=#fff2cc;strokeColor=#d6b656;fontSize=16;fontStyle=1" vertex="1" parent="1">
          <mxGeometry x="-110" y="190" width="138.75" height="45" as="geometry" />
        </mxCell>
        <mxCell id="27vbrKRVvee8yeocWUzd-74" style="edgeStyle=orthogonalEdgeStyle;rounded=0;orthogonalLoop=1;jettySize=auto;html=1;exitX=0.5;exitY=0;exitDx=0;exitDy=0;entryX=0.75;entryY=1;entryDx=0;entryDy=0;" edge="1" parent="1" source="27vbrKRVvee8yeocWUzd-35" target="nDC3GwIiWiEVVQhMs_7W-18">
          <mxGeometry relative="1" as="geometry">
            <mxPoint x="180" y="250" as="targetPoint" />
          </mxGeometry>
        </mxCell>
        <mxCell id="27vbrKRVvee8yeocWUzd-35" value="/odom" style="swimlane;whiteSpace=wrap;html=1;fillColor=#dae8fc;strokeColor=#6c8ebf;fontSize=16;fontStyle=1" vertex="1" parent="1">
          <mxGeometry x="170" y="270" width="70" height="50" as="geometry" />
        </mxCell>
        <mxCell id="27vbrKRVvee8yeocWUzd-75" style="edgeStyle=orthogonalEdgeStyle;rounded=0;orthogonalLoop=1;jettySize=auto;html=1;exitX=0.5;exitY=0;exitDx=0;exitDy=0;entryX=0.25;entryY=1;entryDx=0;entryDy=0;" edge="1" parent="1" source="27vbrKRVvee8yeocWUzd-36" target="nDC3GwIiWiEVVQhMs_7W-18">
          <mxGeometry relative="1" as="geometry">
            <Array as="points">
              <mxPoint x="84" y="250" />
              <mxPoint x="111" y="250" />
            </Array>
          </mxGeometry>
        </mxCell>
        <mxCell id="27vbrKRVvee8yeocWUzd-36" value="/imu" style="swimlane;whiteSpace=wrap;html=1;fillColor=#dae8fc;strokeColor=#6c8ebf;fontSize=16;fontStyle=1" vertex="1" parent="1">
          <mxGeometry x="48.75" y="270" width="70" height="50" as="geometry" />
        </mxCell>
        <mxCell id="27vbrKRVvee8yeocWUzd-76" style="edgeStyle=orthogonalEdgeStyle;rounded=0;orthogonalLoop=1;jettySize=auto;html=1;exitX=1;exitY=0.5;exitDx=0;exitDy=0;entryX=0;entryY=0.5;entryDx=0;entryDy=0;" edge="1" parent="1" source="27vbrKRVvee8yeocWUzd-45" target="27vbrKRVvee8yeocWUzd-36">
          <mxGeometry relative="1" as="geometry" />
        </mxCell>
        <mxCell id="27vbrKRVvee8yeocWUzd-45" value="bno085.py" style="rounded=1;whiteSpace=wrap;html=1;fillColor=#d5e8d4;strokeColor=#82b366;fontSize=16;fontStyle=1" vertex="1" parent="1">
          <mxGeometry x="-110" y="275" width="130" height="40" as="geometry" />
        </mxCell>
        <mxCell id="27vbrKRVvee8yeocWUzd-71" style="edgeStyle=orthogonalEdgeStyle;rounded=0;orthogonalLoop=1;jettySize=auto;html=1;entryX=0.5;entryY=0;entryDx=0;entryDy=0;" edge="1" parent="1" source="27vbrKRVvee8yeocWUzd-55" target="27vbrKRVvee8yeocWUzd-31">
          <mxGeometry relative="1" as="geometry" />
        </mxCell>
        <mxCell id="27vbrKRVvee8yeocWUzd-55" value="uart.py" style="rounded=1;whiteSpace=wrap;html=1;fillColor=#d5e8d4;strokeColor=#82b366;fontSize=16;fontStyle=1" vertex="1" parent="1">
          <mxGeometry x="291.25" y="125" width="70" height="35" as="geometry" />
        </mxCell>
        <mxCell id="27vbrKRVvee8yeocWUzd-93" style="edgeStyle=orthogonalEdgeStyle;rounded=0;orthogonalLoop=1;jettySize=auto;html=1;exitX=0.5;exitY=1;exitDx=0;exitDy=0;entryX=0.5;entryY=0;entryDx=0;entryDy=0;" edge="1" parent="1" source="27vbrKRVvee8yeocWUzd-58" target="0YpsHcEJag4zuLVZvNyq-2">
          <mxGeometry relative="1" as="geometry" />
        </mxCell>
        <mxCell id="27vbrKRVvee8yeocWUzd-58" value="/cmd_vel" style="swimlane;whiteSpace=wrap;html=1;fillColor=#dae8fc;strokeColor=#6c8ebf;fontSize=16;fontStyle=1" vertex="1" parent="1">
          <mxGeometry x="-176.5" y="-46.87" width="80" height="50" as="geometry" />
        </mxCell>
        <mxCell id="27vbrKRVvee8yeocWUzd-100" style="edgeStyle=orthogonalEdgeStyle;rounded=0;orthogonalLoop=1;jettySize=auto;html=1;exitX=0;exitY=0.5;exitDx=0;exitDy=0;entryX=1;entryY=0.5;entryDx=0;entryDy=0;entryPerimeter=0;" edge="1" parent="1" source="27vbrKRVvee8yeocWUzd-18" target="SvQYntT_slhw4JaxMj-Q-76">
          <mxGeometry relative="1" as="geometry" />
        </mxCell>
        <mxCell id="27vbrKRVvee8yeocWUzd-101" style="edgeStyle=orthogonalEdgeStyle;rounded=0;orthogonalLoop=1;jettySize=auto;html=1;exitX=0.5;exitY=1;exitDx=0;exitDy=0;entryX=1;entryY=0.5;entryDx=0;entryDy=0;entryPerimeter=0;" edge="1" parent="1" source="SvQYntT_slhw4JaxMj-Q-88" target="SvQYntT_slhw4JaxMj-Q-76">
          <mxGeometry relative="1" as="geometry" />
        </mxCell>
      </root>
    </mxGraphModel>
  </diagram>
</mxfile>
